<?xml version="1.0" encoding="iso-8859-1"?>
<!-- Generator: Adobe Illustrator 19.0.0, SVG Export Plug-In . SVG Version: 6.00 Build 0)  -->
<svg version="1.1" id="Layer_1" xmlns="http://www.w3.org/2000/svg" xmlns:xlink="http://www.w3.org/1999/xlink" x="0px" y="0px"
	 viewBox="0 0 512 512" style="enable-background:new 0 0 512 512;" xml:space="preserve">
<g>
	<g>
		<path d="M490.667,0H21.333C9.536,0,0,9.557,0,21.333v469.333C0,502.443,9.536,512,21.333,512h469.333
			c11.776,0,21.333-9.557,21.333-21.333V21.333C512,9.557,502.443,0,490.667,0z M106.667,106.667h42.667L170.667,64L192,106.667
			l42.667-0.085l-33.899,34.475L213.397,192l-42.731-34.176L128,192l12.032-51.371L106.667,106.667z M341.333,405.333
			c0,11.776-9.557,21.333-21.333,21.333c-11.797,0-21.333-9.557-21.333-21.333v-64h-85.333v64c0,11.776-9.557,21.333-21.333,21.333
			c-11.797,0-21.333-9.557-21.333-21.333V234.667c0-11.776,9.536-21.333,21.333-21.333c11.776,0,21.333,9.557,21.333,21.333v64
			h85.333v-64c0-11.776,9.536-21.333,21.333-21.333c11.776,0,21.333,9.557,21.333,21.333V405.333z M384.064,192l-42.731-34.176
			L298.667,192l12.032-51.371l-33.365-33.963H320L341.333,64l21.333,42.667l42.667-0.085l-33.899,34.475L384.064,192z"/>
	</g>
</g>
<g>
</g>
<g>
</g>
<g>
</g>
<g>
</g>
<g>
</g>
<g>
</g>
<g>
</g>
<g>
</g>
<g>
</g>
<g>
</g>
<g>
</g>
<g>
</g>
<g>
</g>
<g>
</g>
<g>
</g>
</svg>
