<svg id="Capa_1" enable-background="new 0 0 512 512" height="512" viewBox="0 0 512 512" width="512" xmlns="http://www.w3.org/2000/svg"><g><path d="m482.09 235v-190h-30v33.906h-392.18v-33.906h-30v190h-29.91v232h30v-45.906h452v45.906h30v-232zm-.09 30v30h-452v-30zm-211-63.047c0-8.271 6.729-15 15-15h91.09c8.271 0 15 6.729 15 15v33.047h-121.09zm-30 33.047h-121.09v-33.047c0-8.271 6.729-15 15-15h91.09c8.271 0 15 6.729 15 15zm-181.09-126.094h392.18v126.094h-30v-33.047c0-24.813-20.187-45-45-45h-91.09c-11.517 0-22.032 4.353-30 11.495-7.968-7.141-18.483-11.495-30-11.495h-91.09c-24.813 0-45 20.187-45 45v33.047h-30zm-29.91 216.094h452v66.094h-452z"/></g></svg>